<?xml version="1.0" encoding="UTF-8"?>
<!DOCTYPE svg PUBLIC "-//W3C//DTD SVG 1.1//EN" "http://www.w3.org/Graphics/SVG/1.1/DTD/svg11.dtd">
<!-- Creator: CorelDRAW X8 -->
<svg xmlns="http://www.w3.org/2000/svg" xml:space="preserve" width="4.29868in" height="3.3387in" version="1.1" style="shape-rendering:geometricPrecision; text-rendering:geometricPrecision; image-rendering:optimizeQuality; fill-rule:evenodd; clip-rule:evenodd"
viewBox="0 0 4298 3338"
 xmlns:xlink="http://www.w3.org/1999/xlink">
 <defs>
  <style type="text/css">
   <![CDATA[
    .str0 {stroke:black;stroke-width:1.38551}
    .str3 {stroke:black;stroke-width:1.38551;stroke-linejoin:round}
    .str1 {stroke:black;stroke-width:1.38551;stroke-linecap:round}
    .str2 {stroke:black;stroke-width:1.38551;stroke-linecap:round;stroke-linejoin:round}
    .fil2 {fill:none;fill-rule:nonzero}
    .fil0 {fill:black;fill-rule:nonzero}
    .fil1 {fill:red;fill-rule:nonzero}
   ]]>
  </style>
 </defs>
 <g id="Layer_x0020_1">
  <metadata id="CorelCorpID_0Corel-Layer"/>
  <path class="fil0 str0" d="M3701 2679l0 235 -274 0 0 388 120 0 0 -122 4 0c0,52 0,105 0,157l-4 0 0 -30 -124 0 0 -398 273 0 0 -228 -74 0c0,-103 0,-206 0,-308l476 0 0 308 -74 0 0 228 273 0 0 398 -124 0 0 30 -5 0c0,-52 0,-105 0,-157l5 0 0 122 120 0 0 -388 -274 0 0 -430 -318 0 0 195zm323 -197l0 195 70 0 0 -300 -468 0 0 300 70 0 0 -197 328 0 0 2 0 0z"/>
  <g id="_1661626203536">
   <path class="fil1 str0" d="M3749 2587l61 0 -61 0zm0 0l0 0z"/>
   <path id="_1" class="fil2 str1" d="M3749 2587l61 0m-61 0l0 0z"/>
  </g>
  <line class="fil2 str1" x1="3883" y1="2587" x2="3945" y2= "2587" />
  <path class="fil2 str1" d="M3875 2715c-18,35 -39,36 -59,0"/>
  <path class="fil2 str0" d="M3817 2658c0,0 0,0 0,0 0,15 -15,27 -33,27 -18,0 -33,-12 -33,-27 0,0 0,0 0,0 0,0 0,0 0,0 0,-15 15,-27 33,-27 18,0 33,12 33,27 0,0 0,0 0,0l0 0z"/>
  <path class="fil2 str0" d="M3942 2658c0,0 0,0 0,0 0,15 -15,27 -34,27 -19,0 -33,-12 -33,-27 0,0 0,0 0,0 0,0 0,0 0,0 0,-15 14,-27 33,-27 19,0 34,12 34,27 0,0 0,0 0,0z"/>
  <path class="fil2 str0" d="M3793 2658c0,15 -4,26 -9,26 -4,0 -8,-11 -8,-26 0,-14 4,-26 8,-26 5,0 9,12 9,26l0 0z"/>
  <path class="fil2 str0" d="M3916 2658c0,15 -3,26 -8,26 -5,0 -9,-11 -9,-26 0,-14 4,-26 9,-26 5,0 8,12 8,26l0 0z"/>
  <line class="fil2 str0" x1="3775" y1="2817" x2="3914" y2= "2817" />
  <path class="fil0 str0" d="M2872 2599l0 174 -205 0 0 285 88 0 0 -90 5 0 0 369 -5 0 0 -275 -93 0 0 -294 205 0 0 -167 -56 0 0 -228 358 0 0 228 -55 0 0 167 204 0 0 294 -93 0 0 275 -5 0c1,-123 0,-246 0,-369l5 0 0 90 89 0 0 -285 -205 0 0 -316 -237 0 0 142 0 0zm242 -145l0 143 51 0 0 -220 -349 0 0 220 51 0 0 -145 247 0 0 2 0 0z"/>
  <g id="_1661887898832">
   <path class="fil1 str0" d="M2913 2533l47 0 -47 0zm0 0l0 0z"/>
   <path id="_1_0" class="fil2 str1" d="M2913 2533l47 0m-47 0l0 0z"/>
  </g>
  <line class="fil2 str1" x1="3015" y1="2533" x2="3063" y2= "2533" />
  <path class="fil2 str1" d="M3009 2628c-14,25 -30,26 -45,0"/>
  <path class="fil2 str0" d="M2965 2586c0,0 0,0 0,0 0,11 -11,20 -25,20 -15,0 -26,-9 -26,-20 0,0 0,0 0,0 0,0 0,0 0,0 0,-11 11,-20 26,-20 14,0 25,9 25,20 0,0 0,0 0,0l0 0z"/>
  <path class="fil2 str0" d="M3060 2586c0,0 0,0 0,0 0,11 -12,20 -25,20 -15,0 -26,-9 -26,-20 0,0 0,0 0,0 0,0 0,0 0,0 0,-11 11,-20 26,-20 13,0 25,9 25,20 0,0 0,0 0,0z"/>
  <path class="fil2 str0" d="M2946 2586c0,11 -3,19 -6,19 -4,0 -7,-8 -7,-19 0,-11 3,-19 7,-19 3,0 6,8 6,19l0 0z"/>
  <path class="fil2 str0" d="M3041 2586c0,11 -3,19 -6,19 -4,0 -7,-8 -7,-19 0,-11 3,-19 7,-19 3,0 6,8 6,19l0 0z"/>
  <line class="fil2 str0" x1="2932" y1="2703" x2="3039" y2= "2703" />
  <polyline class="fil2 str0" points="2017,2555 2017,2694 1827,2694 1827,2928 1913,2928 1913,2854 1913,3216 1819,3216 1819,3333 2017,3333 2017,3216 2240,3216 2240,3333 2439,3333 2439,3216 2344,3216 2344,2854 2344,2928 2430,2928 2430,2694 2240,2694 2240,2438 2017,2438 2017,2555 1965,2555 1965,2375 2292,2375 2292,2555 2240,2555 "/>
  <g id="_1661887900432">
   <path class="fil1 str0" d="M2057 2502l43 0 -43 0zm0 0l0 0z"/>
   <path id="_1_1" class="fil2 str1" d="M2057 2502l43 0m-43 0l0 0z"/>
  </g>
  <line class="fil2 str1" x1="2152" y1="2502" x2="2196" y2= "2502" />
  <path class="fil2 str1" d="M2145 2579c-12,20 -26,21 -40,0"/>
  <path class="fil2 str0" d="M2105 2545c0,0 0,0 0,0 0,8 -10,16 -23,16 -14,0 -24,-8 -24,-16 0,0 0,0 0,0 0,0 0,0 0,0 0,-9 10,-16 24,-16 13,0 23,7 23,16 0,0 0,0 0,0l0 0z"/>
  <path class="fil2 str0" d="M2193 2545c0,0 0,0 0,0 0,8 -10,16 -24,16 -13,0 -23,-8 -23,-16 0,0 0,0 0,0 0,0 0,0 0,0 0,-9 10,-16 23,-16 14,0 24,7 24,16 0,0 0,0 0,0z"/>
  <path class="fil2 str0" d="M2088 2545c0,8 -3,15 -6,15 -4,0 -6,-7 -6,-15 0,-8 2,-15 6,-15 3,0 6,7 6,15l0 0z"/>
  <path class="fil2 str0" d="M2175 2545c0,8 -2,15 -6,15 -3,0 -6,-7 -6,-15 0,-8 3,-15 6,-15 4,0 6,7 6,15l0 0z"/>
  <line class="fil2 str0" x1="2075" y1="2639" x2="2174" y2= "2639" />
  <polyline class="fil2 str0" points="1169,2656 1169,2749 1039,2749 1039,2907 1098,2907 1098,2857 1098,3100 1033,3100 1033,3179 1169,3179 1169,3100 1322,3100 1322,3179 1457,3179 1457,3100 1392,3100 1392,2857 1392,2907 1452,2907 1452,2749 1322,2749 1322,2577 1169,2577 1169,2656 1133,2656 1133,2535 1357,2535 1357,2656 1322,2656 "/>
  <g id="_1661887889648">
   <path class="fil1 str0" d="M1197 2620l29 0 -29 0zm0 0l0 0z"/>
   <path id="_1_2" class="fil2 str1" d="M1197 2620l29 0m-29 0l0 0z"/>
  </g>
  <line class="fil2 str1" x1="1261" y1="2620" x2="1291" y2= "2620" />
  <path class="fil2 str1" d="M1257 2672c-8,14 -19,14 -28,0"/>
  <path class="fil2 str0" d="M1229 2649c0,0 0,0 0,0 0,6 -7,11 -16,11 -9,0 -16,-5 -16,-11 0,0 0,0 0,0 0,0 0,0 0,0 0,-6 7,-11 16,-11 9,0 16,5 16,11 0,0 0,0 0,0l0 0z"/>
  <path class="fil2 str0" d="M1289 2649c0,0 0,0 0,0 0,6 -7,11 -16,11 -9,0 -16,-5 -16,-11 0,0 0,0 0,0 0,0 0,0 0,0 0,-6 7,-11 16,-11 9,0 16,5 16,11 0,0 0,0 0,0z"/>
  <path class="fil2 str0" d="M1217 2649c0,6 -2,10 -4,10 -2,0 -4,-4 -4,-10 0,-6 2,-11 4,-11 2,0 4,5 4,11l0 0z"/>
  <path class="fil2 str0" d="M1278 2649c0,6 -2,10 -5,10 -2,0 -4,-4 -4,-10 0,-6 2,-11 4,-11 3,0 5,5 5,11l0 0z"/>
  <line class="fil2 str0" x1="1208" y1="2712" x2="1276" y2= "2712" />
  <polyline class="fil2 str0" points="330,2718 330,2782 232,2782 232,2889 277,2889 277,2855 277,3021 227,3021 227,3075 330,3075 330,3021 445,3021 445,3075 547,3075 547,3021 499,3021 499,2855 499,2889 543,2889 543,2782 445,2782 445,2665 330,2665 330,2718 303,2718 303,2635 472,2635 472,2718 445,2718 "/>
  <g id="_1661887894992">
   <path class="fil1 str0" d="M351 2694l22 0 -22 0zm0 0l0 0z"/>
   <path id="_1_3" class="fil2 str1" d="M351 2694l22 0m-22 0l0 0z"/>
  </g>
  <line class="fil2 str1" x1="399" y1="2694" x2="422" y2= "2694" />
  <path class="fil2 str1" d="M396 2729c-6,9 -14,10 -21,0"/>
  <path class="fil2 str0" d="M375 2713c0,0 0,0 0,0 0,4 -5,8 -12,8 -6,0 -12,-4 -12,-8 0,0 0,0 0,0 0,0 0,0 0,0 0,-4 6,-7 12,-7 7,0 12,3 12,7 0,0 0,0 0,0l0 0z"/>
  <path class="fil2 str0" d="M421 2713c0,0 0,0 0,0 0,4 -6,8 -12,8 -7,0 -13,-4 -13,-8 0,0 0,0 0,0 0,0 0,0 0,0 0,-4 6,-7 13,-7 6,0 12,3 12,7 0,0 0,0 0,0z"/>
  <path class="fil2 str0" d="M367 2713c0,4 -2,7 -3,7 -2,0 -4,-3 -4,-7 0,-4 2,-6 4,-6 1,0 3,2 3,6l0 0z"/>
  <path class="fil2 str0" d="M412 2713c0,4 -2,7 -3,7 -2,0 -4,-3 -4,-7 0,-4 2,-6 4,-6 1,0 3,2 3,6l0 0z"/>
  <line class="fil2 str0" x1="360" y1="2757" x2="411" y2= "2757" />
  <line class="fil2 str0" x1="2756" y1="3336" x2="3223" y2= "3336" />
  <line class="fil2 str0" x1="3547" y1="3336" x2="4173" y2= "3336" />
  <polyline class="fil2 str0" points="3755,184 3755,323 3563,323 3563,557 3650,557 3650,483 3650,845 3554,845 3554,963 3755,963 3755,845 3982,845 3982,963 4183,963 4183,845 4087,845 4087,483 4087,557 4174,557 4174,323 3982,323 3982,67 3755,67 3755,184 3703,184 3703,3 4035,3 4035,184 3982,184 "/>
  <g id="_1661644563392">
   <path class="fil1 str0" d="M3796 104l44 0 -44 0zm0 0l0 0z"/>
   <path id="_1_4" class="fil2 str1" d="M3796 104l44 0m-44 0l0 0z"/>
  </g>
  <line class="fil2 str1" x1="3892" y1="104" x2="3937" y2= "104" />
  <path class="fil2 str1" d="M3888 229c-12,20 -27,21 -41,0"/>
  <path class="fil2 str0" d="M3845 173c0,0 0,0 0,0 0,9 -11,17 -24,17 -13,0 -24,-8 -24,-17 0,0 0,0 0,0 0,0 0,0 0,0 0,-9 11,-16 24,-16 13,0 24,7 24,16 0,0 0,0 0,0l0 0z"/>
  <path class="fil2 str0" d="M3934 173c0,0 0,0 0,0 0,9 -11,17 -24,17 -13,0 -24,-8 -24,-17 0,0 0,0 0,0 0,0 0,0 0,0 0,-9 11,-16 24,-16 13,0 24,7 24,16 0,0 0,0 0,0z"/>
  <path class="fil2 str0" d="M3827 173c0,9 -3,16 -6,16 -3,0 -6,-7 -6,-16 0,-8 3,-15 6,-15 3,0 6,7 6,15l0 0z"/>
  <path class="fil2 str0" d="M3916 173c0,9 -3,16 -6,16 -3,0 -6,-7 -6,-16 0,-8 3,-15 6,-15 3,0 6,7 6,15l0 0z"/>
  <path class="fil2 str2" d="M3930 290c-42,-36 -79,-37 -123,0"/>
  <polyline class="fil2 str0" points="2880,183 2880,320 2687,320 2687,553 2775,553 2775,479 2775,839 2678,839 2678,956 2880,956 2880,839 3108,839 3108,956 3309,956 3309,839 3213,839 3213,479 3213,553 3301,553 3301,320 3108,320 3108,66 2880,66 2880,183 2827,183 2827,3 3160,3 3160,183 3108,183 "/>
  <g id="_1661894689616">
   <path class="fil1 str0" d="M2921 129l44 -20 -44 20zm0 0l0 0z"/>
   <path id="_1_5" class="fil2 str1" d="M2921 129l44 -20m-44 20l0 0z"/>
  </g>
  <line class="fil2 str1" x1="3018" y1="109" x2="3062" y2= "129" />
  <path class="fil2 str1" d="M3014 227c-13,20 -28,21 -42,0"/>
  <path class="fil2 str0" d="M2970 172c0,0 0,0 0,0 0,9 -10,16 -24,16 -13,0 -24,-7 -24,-16 0,0 0,0 0,0 0,0 0,0 0,0 0,-9 11,-16 24,-16 14,0 24,7 24,16 0,0 0,0 0,0l0 0z"/>
  <path class="fil2 str0" d="M3060 172c0,0 0,0 0,0 0,9 -11,16 -24,16 -14,0 -24,-7 -24,-16 0,0 0,0 0,0 0,0 0,0 0,0 0,-9 10,-16 24,-16 13,0 24,7 24,16 0,0 0,0 0,0z"/>
  <path class="fil2 str0" d="M2952 172c0,9 -2,15 -6,15 -3,0 -6,-6 -6,-15 0,-8 3,-15 6,-15 4,0 6,7 6,15l0 0z"/>
  <path class="fil2 str0" d="M3042 172c0,9 -3,15 -6,15 -4,0 -6,-6 -6,-15 0,-8 2,-15 6,-15 3,0 6,7 6,15l0 0z"/>
  <path class="fil2 str2" d="M3055 288c-30,-26 -90,-33 -122,0"/>
  <polyline class="fil2 str0" points="2021,182 2021,321 1832,321 1832,556 1918,556 1918,481 1918,844 1823,844 1823,961 2021,961 2021,844 2245,844 2245,961 2443,961 2443,844 2348,844 2348,481 2348,556 2434,556 2434,321 2245,321 2245,65 2021,65 2021,182 1970,182 1970,1 2296,1 2296,182 2245,182 "/>
  <g id="_1661894692048">
   <path class="fil1 str0" d="M2058 129l42 0 -42 0zm0 0l0 0z"/>
   <path id="_1_6" class="fil2 str1" d="M2058 129l42 0m-42 0l0 0z"/>
  </g>
  <line class="fil2 str1" x1="2151" y1="129" x2="2194" y2= "129" />
  <path class="fil2 str1" d="M2145 206c-13,20 -27,21 -41,0"/>
  <path class="fil2 str0" d="M2105 172c0,0 0,0 0,0 0,9 -10,16 -23,16 -13,0 -24,-7 -24,-16 0,0 0,0 0,0 0,0 0,0 0,0 0,-9 11,-16 24,-16 13,0 23,7 23,16 0,0 0,0 0,0l0 0z"/>
  <path class="fil2 str0" d="M2192 172c0,0 0,0 0,0 0,9 -11,16 -24,16 -13,0 -23,-7 -23,-16 0,0 0,0 0,0 0,0 0,0 0,0 0,-9 10,-16 23,-16 13,0 24,7 24,16 0,0 0,0 0,0z"/>
  <path class="fil2 str0" d="M2088 172c0,8 -3,15 -6,15 -3,0 -6,-7 -6,-15 0,-9 3,-16 6,-16 3,0 6,7 6,16l0 0z"/>
  <path class="fil2 str0" d="M2174 172c0,8 -3,15 -6,15 -3,0 -6,-7 -6,-15 0,-9 3,-16 6,-16 3,0 6,7 6,16l0 0z"/>
  <line class="fil2 str0" x1="2075" y1="266" x2="2172" y2= "266" />
  <polyline class="fil2 str0" points="1138,185 1138,323 944,323 944,557 1033,557 1033,483 1033,846 935,846 935,963 1138,963 1138,846 1369,846 1369,963 1572,963 1572,846 1474,846 1474,483 1474,557 1563,557 1563,323 1369,323 1369,67 1138,67 1138,185 1086,185 1086,3 1421,3 1421,185 1369,185 "/>
  <g id="_1661894692912">
   <path class="fil1 str0" d="M1180 118l44 0 -44 0zm0 0l0 0z"/>
   <path id="_1_7" class="fil2 str1" d="M1180 118l44 0m-44 0l0 0z"/>
  </g>
  <line class="fil2 str1" x1="1277" y1="118" x2="1322" y2= "118" />
  <path class="fil2 str1" d="M1196 265c44,49 68,49 113,3"/>
  <path class="fil2 str1" d="M1272 222c-9,26 -26,27 -36,0"/>
  <path class="fil2 str0" d="M1236 174c0,0 0,0 0,0 0,9 -11,16 -25,16 -13,0 -24,-7 -24,-16 0,0 0,0 0,0 0,0 0,0 0,0 0,-9 11,-16 24,-16 14,0 25,7 25,16 0,0 0,0 0,0l0 0z"/>
  <path class="fil2 str0" d="M1315 174c0,0 0,0 0,0 0,9 -11,16 -24,16 -13,0 -24,-7 -24,-16 0,0 0,0 0,0 0,0 0,0 0,0 0,-9 11,-16 24,-16 13,0 24,7 24,16 0,0 0,0 0,0z"/>
  <path class="fil2 str0" d="M1217 174c0,8 -2,15 -6,15 -3,0 -6,-7 -6,-15 0,-9 3,-16 6,-16 4,0 6,7 6,16l0 0z"/>
  <path class="fil2 str0" d="M1297 174c0,8 -3,15 -6,15 -4,0 -6,-7 -6,-15 0,-9 2,-16 6,-16 3,0 6,7 6,16l0 0z"/>
  <polyline class="fil2 str0" points="278,184 278,322 86,322 86,556 173,556 173,482 173,843 77,843 77,960 278,960 278,843 505,843 505,960 706,960 706,843 610,843 610,482 610,556 698,556 698,322 505,322 505,67 278,67 278,184 226,184 226,3 558,3 558,184 505,184 "/>
  <g id="_1661894697744">
   <path class="fil1 str0" d="M322 99l44 0 -44 0zm0 0l0 0z"/>
   <path id="_1_8" class="fil2 str1" d="M322 99l44 0m-44 0l0 0z"/>
  </g>
  <line class="fil2 str1" x1="418" y1="99" x2="461" y2= "99" />
  <path class="fil2 str1" d="M331 247c36,83 83,81 113,0"/>
  <path class="fil2 str1" d="M444 247c-41,39 -67,41 -113,0"/>
  <path class="fil2 str1" d="M410 221c-9,26 -25,27 -36,0"/>
  <path class="fil2 str0" d="M374 173c0,0 0,0 0,0 0,9 -10,16 -24,16 -13,0 -24,-7 -24,-16 0,0 0,0 0,0 0,0 0,0 0,0 0,-9 11,-16 24,-16 14,0 24,7 24,16 0,0 0,0 0,0l0 0z"/>
  <path class="fil2 str0" d="M453 173c0,0 0,0 0,0 0,9 -11,16 -24,16 -13,0 -24,-7 -24,-16 0,0 0,0 0,0 0,0 0,0 0,0 0,-9 11,-16 24,-16 13,0 24,7 24,16 0,0 0,0 0,0z"/>
  <path class="fil2 str0" d="M357 173c0,9 -3,16 -7,16 -3,0 -6,-7 -6,-16 0,-8 3,-15 6,-15 4,0 7,7 7,15l0 0z"/>
  <path class="fil2 str0" d="M435 173c0,9 -3,16 -6,16 -3,0 -6,-7 -6,-16 0,-8 3,-15 6,-15 3,0 6,7 6,15l0 0z"/>
  <line class="fil2 str1" x1="476" y1="245" x2="461" y2= "215" />
  <line class="fil2 str1" x1="302" y1="245" x2="322" y2= "215" />
  <polyline class="fil2 str0" points="3744,1397 3744,1536 3551,1536 3551,1770 3639,1770 3639,1696 3639,2058 3543,2058 3543,2175 3744,2175 3744,2058 3971,2058 3971,2175 4173,2175 4173,2058 4076,2058 4076,1696 4076,1770 4164,1770 4164,1536 3971,1536 3971,1280 3744,1280 3744,1397 3692,1397 3692,1216 4024,1216 4024,1397 3971,1397 "/>
  <g id="_1661894700272">
   <path class="fil1 str0" d="M3786 1339l43 0 -43 0zm0 0l0 0z"/>
   <path id="_1_9" class="fil2 str1" d="M3786 1339l43 0m-43 0l0 0z"/>
  </g>
  <line class="fil2 str1" x1="3884" y1="1339" x2="3928" y2= "1339" />
  <path class="fil2 str1" d="M3871 1413c-8,26 -25,27 -35,0"/>
  <line class="fil2 str0" x1="3901" y1="1472" x2="3805" y2= "1472" />
  <path class="fil2 str0" d="M3788 1361c1,55 40,56 39,0"/>
  <path class="fil2 str0" d="M3886 1361c1,55 40,56 40,0"/>
  <path class="fil2 str2" d="M3867 1811c0,7 -4,12 -9,12 -5,0 -10,-5 -10,-12 0,-6 5,-11 10,-11 5,0 9,5 9,11l0 0z"/>
  <polyline class="fil2 str0" points="2873,1394 2873,1533 2682,1533 2682,1768 2769,1768 2769,1693 2769,2055 2673,2055 2673,2173 2873,2173 2873,2055 3099,2055 3099,2173 3299,2173 3299,2055 3203,2055 3203,1693 3203,1768 3290,1768 3290,1533 3099,1533 3099,1277 2873,1277 2873,1394 2821,1394 2821,1213 3151,1213 3151,1394 3099,1394 "/>
  <g id="_1661894701712">
   <path class="fil1 str0" d="M2914 1336l44 0 -44 0zm0 0l0 0z"/>
   <path id="_1_10" class="fil2 str1" d="M2914 1336l44 0m-44 0l0 0z"/>
  </g>
  <line class="fil2 str1" x1="3012" y1="1336" x2="3055" y2= "1336" />
  <path class="fil2 str1" d="M2999 1408c6,24 -38,25 -36,0"/>
  <line class="fil2 str0" x1="3030" y1="1469" x2="2934" y2= "1469" />
  <path class="fil2 str2" d="M2974 1810c0,4 -2,7 -6,7 -3,0 -6,-3 -6,-7 0,-4 3,-7 6,-7 4,0 6,3 6,7l0 0z"/>
  <polyline class="fil2 str3" points="3008,1721 3000,1734 2987,1733 2982,1747 2965,1752 2972,1780 2993,1781 2997,1792 3018,1791 3029,1759 3015,1753 3015,1734 3008,1721 "/>
  <polygon class="fil2 str3" points="3014,1699 3029,1715 3038,1713 "/>
  <path class="fil2 str2" d="M2958 1372c0,9 -10,16 -22,16 -12,0 -22,-7 -22,-16 0,-9 10,-16 22,-16 12,0 22,7 22,16l0 0z"/>
  <path class="fil2 str2" d="M2941 1372c0,10 -2,18 -5,18 -3,0 -5,-8 -5,-18 0,-10 2,-18 5,-18 3,0 5,8 5,18l0 0z"/>
  <path class="fil2 str2" d="M3055 1372c0,9 -9,16 -21,16 -12,0 -22,-7 -22,-16 0,-9 10,-16 22,-16 12,0 21,7 21,16l0 0z"/>
  <path class="fil2 str2" d="M3039 1372c0,10 -2,18 -5,18 -3,0 -5,-8 -5,-18 0,-10 2,-18 5,-18 3,0 5,8 5,18z"/>
  <polyline class="fil2 str0" points="2015,1395 2015,1534 1827,1534 1827,1769 1912,1769 1912,1695 1912,2057 1818,2057 1818,2175 2015,2175 2015,2057 2238,2057 2238,2175 2435,2175 2435,2057 2341,2057 2341,1695 2341,1769 2426,1769 2426,1534 2238,1534 2238,1278 2015,1278 2015,1395 1964,1395 1964,1214 2289,1214 2289,1395 2238,1395 "/>
  <path class="fil2 str1" d="M2140 1403c7,21 -43,22 -40,0"/>
  <line class="fil2 str1" x1="2169" y1="1461" x2="2075" y2= "1461" />
  <polygon class="fil2 str3" points="2126,1736 2123,1749 2108,1750 2097,1764 2123,1792 2151,1789 2149,1773 2154,1754 2143,1736 "/>
  <path class="fil2 str2" d="M2094 1374c0,11 -9,21 -21,21 -12,0 -21,-10 -21,-21 0,-11 9,-21 21,-21 12,0 21,10 21,21l0 0z"/>
  <path class="fil2 str2" d="M2078 1373c0,10 -2,18 -5,18 -3,0 -5,-8 -5,-18 0,-10 2,-18 5,-18 3,0 5,8 5,18l0 0z"/>
  <path class="fil2 str1" d="M2214 1685c-32,11 -27,-57 -50,-44 -53,30 -13,-13 -48,2"/>
  <path class="fil2 str1" d="M2052 1892c26,45 13,7 40,39"/>
  <path class="fil2 str1" d="M2062 1869c19,36 30,3 36,28"/>
  <path class="fil2 str0" d="M2078 1653c3,0 5,1 7,2 2,2 4,4 6,6 3,4 5,9 7,14 3,5 5,11 8,15 2,2 4,4 6,5 2,1 4,2 7,1 3,0 5,-1 7,-3 3,-2 5,-5 7,-7 2,-3 4,-6 6,-8 2,-2 4,-4 7,-5 5,-2 9,-1 14,2 4,2 7,7 10,11 5,10 9,21 14,30 7,12 19,19 30,20 5,2 10,6 13,12 2,5 4,12 3,19 -1,6 -4,13 -8,17 -4,4 -9,6 -14,6 -2,0 -5,0 -8,-1 -3,0 -5,1 -8,3 -1,1 -2,2 -2,4 -1,2 -1,4 -1,6 0,3 1,7 2,10 3,7 8,12 12,18 3,6 5,13 4,20 0,3 -1,7 -3,10 -1,3 -3,6 -6,7 -3,3 -7,3 -11,3 -4,-1 -8,-3 -11,-6 -7,-5 -12,-13 -17,-21 -5,-8 -11,-15 -18,-19 -4,-2 -8,-2 -12,-2 -4,1 -7,4 -9,8 -2,2 -3,5 -3,8 -1,3 -1,5 -2,8 0,3 -1,6 -2,9 -1,2 -2,5 -4,6 -3,3 -6,4 -9,3 -3,0 -6,-2 -8,-5 -2,-2 -4,-5 -5,-9 -2,-3 -2,-7 -3,-11 -1,-7 -1,-15 -2,-22 -1,-8 -3,-16 -7,-21 -4,-6 -11,-8 -17,-8 -6,-1 -13,0 -18,-1 -7,0 -13,-1 -19,-5 -2,-2 -5,-5 -6,-8 -2,-4 -2,-8 -2,-12 0,-2 1,-5 2,-7 2,-3 3,-5 5,-6 4,-4 8,-5 13,-7 4,-1 8,-2 12,-4 4,-2 9,-4 12,-9 4,-5 5,-13 5,-20 1,-7 0,-14 0,-22 -1,-7 0,-15 2,-22 2,-3 4,-6 6,-8 2,-2 5,-4 8,-4"/>
  <path class="fil2 str2" d="M2190 1374c0,11 -9,21 -21,21 -12,0 -21,-10 -21,-21 0,-11 9,-21 21,-21 12,0 21,10 21,21l0 0z"/>
  <path class="fil2 str2" d="M2174 1373c0,10 -2,18 -5,18 -3,0 -5,-8 -5,-18 0,-10 2,-18 5,-18 3,0 5,8 5,18z"/>
  <path class="fil2 str1" d="M2092 1327c-12,-7 -37,-6 -47,0"/>
  <path class="fil2 str1" d="M2195 1327c-12,-7 -37,-6 -47,0"/>
  <polyline class="fil2 str0" points="1131,1396 1131,1536 938,1536 938,1771 1026,1771 1026,1696 1026,2059 929,2059 929,2177 1131,2177 1131,2059 1360,2059 1360,2177 1562,2177 1562,2059 1465,2059 1465,1696 1465,1771 1553,1771 1553,1536 1360,1536 1360,1279 1131,1279 1131,1396 1078,1396 1078,1214 1413,1214 1413,1396 1360,1396 "/>
  <path class="fil2 str1" d="M1260 1404c7,21 -45,22 -42,0"/>
  <line class="fil2 str1" x1="1289" y1="1462" x2="1193" y2= "1462" />
  <path class="fil2 str2" d="M1212 1375c0,11 -9,21 -21,21 -12,0 -22,-10 -22,-21 0,-11 10,-21 22,-21 12,0 21,10 21,21l0 0z"/>
  <path class="fil2 str2" d="M1196 1374c0,10 -2,18 -5,18 -3,0 -5,-8 -5,-18 0,-10 2,-18 5,-18 3,0 5,8 5,18l0 0z"/>
  <path class="fil2 str1" d="M1082 1779c-16,-11 -21,45 1,64 19,16 -6,18 25,29"/>
  <path class="fil2 str1" d="M1054 1850c19,36 28,17 34,41"/>
  <path class="fil2 str2" d="M1311 1375c0,11 -10,21 -22,21 -12,0 -21,-10 -21,-21 0,-11 9,-21 21,-21 12,0 22,10 22,21l0 0z"/>
  <path class="fil2 str2" d="M1294 1374c0,10 -2,18 -5,18 -3,0 -5,-8 -5,-18 0,-10 2,-18 5,-18 3,0 5,8 5,18z"/>
  <path class="fil2 str1" d="M1210 1328c-12,-7 -38,-6 -48,0"/>
  <path class="fil2 str1" d="M1316 1328c-13,-7 -38,-6 -48,0"/>
  <path class="fil2 str1" d="M874 1508c15,-9 24,-17 30,-36 8,-14 15,4 37,-14"/>
  <path class="fil2 str1" d="M1048 1150c-28,1 -11,10 -34,18 3,44 -11,20 -10,42"/>
  <path class="fil2 str1" d="M1569 2227c-6,-20 13,-1 16,-15 15,-41 16,8 23,-36"/>
  <path class="fil2 str1" d="M1316 1956c1,17 17,15 27,13 8,1 19,-4 32,8"/>
  <path class="fil2 str0" d="M1310 1710c14,4 8,-1 21,6 9,5 -11,26 -12,36 -1,11 7,54 1,62 -25,-7 -34,5 -44,13 -18,9 -17,0 -37,1 -15,6 -15,27 -29,34 -5,-1 1,-42 0,-47 -1,-15 17,-14 29,-20 7,0 -7,-7 -7,-18 -18,-11 -20,-22 -24,-29 0,-31 35,0 36,-12 11,-11 2,-34 8,-36 8,1 5,-1 24,1 12,18 23,11 34,9l0 0 0 0z"/>
  <path class="fil2 str1" d="M1400 1563c13,-2 19,10 18,30"/>
  <path class="fil2 str1" d="M1365 1578c11,33 17,-4 27,37"/>
  <path class="fil2 str1" d="M1395 1937c12,28 28,15 24,42"/>
  <path class="fil2 str1" d="M1411 1836c-7,22 -2,39 0,64"/>
  <path class="fil2 str1" d="M1400 1687c-1,-11 5,-13 7,-19 2,-3 4,-8 5,-10 1,-3 8,0 7,-10"/>
  <path class="fil2 str1" d="M1161 1554c8,3 12,-12 16,-14 5,-6 7,-10 13,-13 10,5 6,13 11,11"/>
  <path class="fil2 str1" d="M1123 1662c21,-4 14,4 21,7 11,3 6,0 16,4 26,8 10,29 28,30"/>
  <path class="fil2 str0" d="M1172 1606c6,-73 72,-18 80,25 23,46 79,50 100,-2 63,-9 -13,96 36,124 23,40 -44,50 -8,94 33,53 -34,126 -63,61 -28,-74 -34,-78 -48,11 8,47 -21,119 -63,73 -37,-40 4,-106 -22,-150 -21,-40 -101,4 -72,-68 9,-18 46,-50 72,-55 51,-8 35,-14 19,-41 -14,-20 -38,-43 -31,-72l0 0 0 0z"/>
  <polyline class="fil2 str0" points="268,1398 268,1536 73,1536 73,1770 161,1770 161,1696 161,2057 64,2057 64,2174 268,2174 268,2057 498,2057 498,2174 702,2174 702,2057 604,2057 604,1696 604,1770 693,1770 693,1536 498,1536 498,1281 268,1281 268,1398 214,1398 214,1217 551,1217 551,1398 498,1398 "/>
  <path class="fil2 str1" d="M397 1405c7,21 -45,22 -41,0"/>
  <line class="fil2 str1" x1="427" y1="1463" x2="330" y2= "1463" />
  <path class="fil2 str2" d="M349 1376c0,12 -9,21 -22,21 -12,0 -21,-9 -21,-21 0,-11 9,-20 21,-20 13,0 22,9 22,20l0 0z"/>
  <path class="fil2 str2" d="M333 1375c0,10 -3,18 -6,18 -2,0 -5,-8 -5,-18 0,-9 3,-17 5,-17 3,0 6,8 6,17l0 0z"/>
  <path class="fil2 str2" d="M449 1376c0,12 -10,21 -22,21 -12,0 -22,-9 -22,-21 0,-11 10,-20 22,-20 12,0 22,9 22,20l0 0z"/>
  <path class="fil2 str2" d="M432 1375c0,10 -2,18 -5,18 -3,0 -5,-8 -5,-18 0,-9 2,-17 5,-17 3,0 5,8 5,17z"/>
  <path class="fil2 str1" d="M348 1330c-13,-7 -39,-7 -50,0"/>
  <path class="fil2 str1" d="M453 1330c-12,-7 -38,-7 -48,0"/>
  <path class="fil2 str0" d="M629 1634c1,26 11,-18 17,20 1,9 7,29 9,39 3,-39 8,-9 12,-13 4,-8 -1,-26 -1,-35 0,-6 -5,-20 -10,-6"/>
  <polyline class="fil2 str2" points="357,1758 401,1827 366,1893 409,1846 418,1869 451,1876 436,1852 435,1833 461,1782 418,1816 357,1758 "/>
  <polygon class="fil2 str3" points="433,1733 99,1438 232,1759 80,1844 283,1813 318,1826 138,1967 338,1930 413,2185 428,1937 489,2018 459,1914 650,2008 605,1933 514,1833 567,1815 504,1779 693,1455 478,1721 401,1622 "/>
  <path class="fil2 str1" d="M115 1738c22,-12 -1,-37 28,-55"/>
  <path class="fil2 str1" d="M117 1664c1,11 -5,15 -7,27 -2,6 -10,8 -13,14"/>
  <path class="fil2 str1" d="M125 2015c-1,-9 -6,-6 -8,-14 -3,-41 -8,-69 8,-74"/>
  <path class="fil2 str1" d="M91 1943c-10,4 -11,21 -1,27"/>
  <path class="fil2 str1" d="M345 1641c9,1 13,-1 18,-7"/>
  <path class="fil2 str1" d="M1 2164c1,15 3,28 11,34 6,4 -10,18 10,27"/>
  <path class="fil2 str1" d="M38 2142c0,4 -12,6 -11,18 0,7 8,14 10,22 2,8 -1,16 -1,18 3,22 17,-9 20,29"/>
  <path class="fil2 str1" d="M744 2227c3,-13 15,-13 18,-14 11,-19 3,-14 2,-32"/>
  <path class="fil2 str1" d="M754 2144c-20,6 0,32 -12,37 -12,4 -4,23 -15,28 -12,5 -12,-7 -31,17"/>
  <path class="fil2 str1" d="M569 1144c7,1 13,-3 19,-8 5,-3 12,0 15,6 7,9 10,21 11,33 3,7 11,7 15,13 10,11 14,27 13,43"/>
  <path class="fil2 str1" d="M549 1165c11,-2 24,1 31,12 9,14 9,16 15,31 2,6 0,29 4,33 8,6 12,4 4,19"/>
  <path class="fil2 str1" d="M100 1256c14,-73 63,-121 119,-123"/>
  <path class="fil2 str1" d="M140 1258c8,-66 104,-111 119,-83"/>
  <path class="fil2 str1" d="M511 1995c18,1 10,-10 33,-11"/>
  <path class="fil2 str1" d="M551 2000c0,24 -9,2 -23,16"/>
  <path class="fil2 str1" d="M330 2005c-20,3 1,-18 -27,-13"/>
  <path class="fil2 str1" d="M293 2002c-3,9 4,17 11,11"/>
  <path class="fil2 str1" d="M471 2069c-5,-9 -8,8 -9,8 -5,6 -8,-1 -11,4"/>
  <line class="fil2 str1" x1="452" y1="2108" x2="459" y2= "2100" />
 </g>
</svg>
